<?xml version="1.0" encoding="utf-8"?>
<!-- Generator: Adobe Illustrator 16.0.3, SVG Export Plug-In . SVG Version: 6.00 Build 0)  -->
<!DOCTYPE svg PUBLIC "-//W3C//DTD SVG 1.1//EN" "http://www.w3.org/Graphics/SVG/1.1/DTD/svg11.dtd">
<svg version="1.1" id="Layer_1" xmlns="http://www.w3.org/2000/svg" xmlns:xlink="http://www.w3.org/1999/xlink" x="0px" y="0px"
	 width="354.33px" height="340.16px" viewBox="0 0 354.33 340.16" enable-background="new 0 0 354.33 340.16" xml:space="preserve">
<g>
	<path fill-rule="evenodd" clip-rule="evenodd" fill="#FFFFFF" d="M63.789,180.588c-0.162,0.06-0.321,0.121-0.482,0.178
		c0,53.163,0,106.323,0,159.395c86.177,0,172.067,0,257.987,0c0.054-0.73,0.116-1.188,0.116-1.645
		c0.006-79.123,0.015-158.244-0.071-237.368c-0.001-1.394-0.828-3.12-1.835-4.129c-31.638-31.764-63.331-63.472-95.102-95.103
		c-1.138-1.134-3.137-1.989-4.735-1.992C168.58-0.181,117.491-0.163,66.404-0.155c-1.008,0-2.016,0.113-3.424,0.197
		c0.667,11.592-1.804,23.141,3.996,34.137c3.706,7.024,6.155,14.711,9.185,22.092c0.454,1.104,1.001,2.171,1.506,3.254
		c0.218-0.049,0.437-0.1,0.655-0.149c0-14.75,0-29.499,0-44.208c46.423,0,92.481,0,138.886,0c0,29.68,0,59.154,0,88.982
		c29.815,0,59.288,0,88.828,0c0,73.85,0,147.34,0,220.88c-76.021,0-151.819,0-227.874,0c0-1.741,0-3.229,0-4.718
		c0-33.365,0.046-66.726-0.08-100.091c-0.012-3.013-0.745-6.171-1.823-9.003c-3.373-8.861-7.066-17.599-10.647-26.38
		C65.031,183.411,64.398,182.004,63.789,180.588z M152.537,288.765c-0.145,0-0.291,0-0.436,0c0-5.902,0.082-11.811-0.049-17.711
		c-0.04-1.803-0.386-3.705-1.064-5.37C118.099,184.976,85.145,104.294,52.25,23.587c-2.204-5.409-6.147-8.536-11.608-9.963
		c-6.11-1.598-11.724,0.009-16.93,3.138c-8.042,4.833-10.723,13.171-7.179,21.854c32.886,80.585,65.777,161.167,98.703,241.737
		c0.599,1.465,1.42,2.94,2.481,4.097c8.059,8.791,16.21,17.495,24.317,26.242c1.863,2.011,3.941,3.263,6.756,2.159
		c2.893-1.138,3.797-3.428,3.765-6.373C152.492,300.575,152.537,294.67,152.537,288.765z M106.125,83.715
		c28.079,0,55.906,0,83.681,0c0-13.941,0-27.641,0-41.312c-28.019,0-55.763,0-83.681,0
		C106.125,56.196,106.125,69.814,106.125,83.715z M109.981,139.016c1.475,3.649,3.07,6.978,4.154,10.469
		c0.853,2.741,2.343,3.336,5.052,3.334c52.356-0.082,104.711-0.06,157.066-0.064c1.107,0,2.217-0.096,3.315-0.148
		c0-4.707,0-9.062,0-13.591C223.056,139.016,166.719,139.016,109.981,139.016z M129.85,187.646c1.47,3.674,3.011,7.023,4.136,10.508
		c0.856,2.654,2.288,3.334,5.023,3.327c69.34-0.148,72.587-0.07,136.847-0.07c1.224,0,2.448,0,3.608,0c0-4.909,0-9.346,0-13.765
		C212.325,187.646,202.491,187.646,129.85,187.646z"/>
	<path fill-rule="evenodd" clip-rule="evenodd" d="M63.789,180.588c0.609,1.416,1.242,2.823,1.824,4.251
		c3.581,8.781,7.274,17.519,10.647,26.38c1.078,2.832,1.811,5.99,1.823,9.003c0.126,33.365,0.08,66.726,0.08,100.091
		c0,1.488,0,2.977,0,4.718c76.055,0,151.853,0,227.874,0c0-73.54,0-147.03,0-220.88c-29.54,0-59.013,0-88.828,0
		c0-29.828,0-59.303,0-88.982c-46.405,0-92.463,0-138.886,0c0,14.709,0,29.459,0,44.208c-0.218,0.05-0.437,0.101-0.655,0.149
		c-0.505-1.083-1.053-2.149-1.506-3.254c-3.03-7.381-5.479-15.068-9.185-22.092c-5.8-10.996-3.329-22.545-3.996-34.137
		c1.408-0.084,2.417-0.196,3.424-0.197c51.087-0.008,102.176-0.026,153.263,0.078c1.599,0.003,3.598,0.858,4.735,1.992
		c31.771,31.631,63.464,63.339,95.102,95.103c1.007,1.009,1.834,2.736,1.835,4.129c0.086,79.124,0.077,158.245,0.071,237.368
		c0,0.456-0.063,0.914-0.116,1.645c-85.92,0-171.81,0-257.987,0c0-53.071,0-106.231,0-159.395
		C63.468,180.709,63.627,180.647,63.789,180.588z M286.322,87.608c-17.633-17.595-35.118-35.043-52.612-52.499
		c0,17.278,0,34.779,0,52.499C251.344,87.608,268.754,87.608,286.322,87.608z"/>
	<path fill-rule="evenodd" clip-rule="evenodd" d="M152.537,288.765c0,5.905-0.044,11.811,0.02,17.714
		c0.032,2.945-0.873,5.235-3.765,6.373c-2.815,1.104-4.894-0.148-6.756-2.159c-8.106-8.747-16.258-17.451-24.317-26.242
		c-1.061-1.156-1.882-2.632-2.481-4.097C82.311,199.783,49.42,119.202,16.534,38.616c-3.544-8.683-0.863-17.021,7.179-21.854
		c5.207-3.129,10.82-4.736,16.93-3.138c5.461,1.427,9.404,4.554,11.608,9.963c32.895,80.707,65.849,161.388,98.737,242.096
		c0.678,1.665,1.025,3.567,1.064,5.37c0.131,5.9,0.049,11.809,0.049,17.711C152.246,288.765,152.392,288.765,152.537,288.765z"/>
	<path fill-rule="evenodd" clip-rule="evenodd" d="M106.125,83.715c0-13.9,0-27.519,0-41.312c27.918,0,55.662,0,83.681,0
		c0,13.671,0,27.371,0,41.312C162.031,83.715,134.204,83.715,106.125,83.715z M175.982,69.896c0-4.749,0-9.102,0-13.553
		c-18.741,0-37.296,0-55.874,0c0,4.646,0,9.082,0,13.553C138.831,69.896,157.304,69.896,175.982,69.896z"/>
	<path fill-rule="evenodd" clip-rule="evenodd" d="M109.981,139.016c56.737,0,113.074,0,169.588,0c0,4.529,0,8.884,0,13.591
		c-1.099,0.053-2.208,0.148-3.315,0.148c-52.354,0.004-104.71-0.018-157.066,0.064c-2.709,0.002-4.2-0.593-5.052-3.334
		C113.051,145.994,111.457,142.665,109.981,139.016z"/>
	<path fill-rule="evenodd" clip-rule="evenodd" d="M129.85,187.646c72.641,0,82.475,0,149.614,0c0,4.419,0,8.855,0,13.765
		c-1.16,0-2.385,0-3.608,0c-64.26,0-67.507-0.078-136.847,0.07c-2.735,0.007-4.167-0.673-5.023-3.327
		C132.861,194.669,131.32,191.319,129.85,187.646z"/>
	<path fill-rule="evenodd" clip-rule="evenodd" d="M145.179,233.704c65.25,0,74.084,0,134.39,0c0,4.419,0,8.856,0,13.765
		c-1.044,0-2.143,0-3.242,0c-57.72,0-60.637-0.078-122.921,0.069c-2.457,0.007-3.743-0.673-4.511-3.325
		C147.885,240.729,146.5,237.377,145.179,233.704z"/>
	<path fill-rule="evenodd" clip-rule="evenodd" fill="#FFFFFF" d="M286.322,87.608c-17.568,0-34.979,0-52.612,0
		c0-17.719,0-35.221,0-52.499C251.204,52.565,268.689,70.013,286.322,87.608z"/>
	<path fill-rule="evenodd" clip-rule="evenodd" fill="#FFFFFF" d="M175.982,69.896c-18.679,0-37.152,0-55.874,0
		c0-4.472,0-8.907,0-13.553c18.578,0,37.133,0,55.874,0C175.982,60.795,175.982,65.147,175.982,69.896z"/>
</g>
</svg>
