<?xml version="1.0" encoding="utf-8"?>
<!-- Generator: Adobe Illustrator 16.0.3, SVG Export Plug-In . SVG Version: 6.00 Build 0)  -->
<!DOCTYPE svg PUBLIC "-//W3C//DTD SVG 1.1//EN" "http://www.w3.org/Graphics/SVG/1.1/DTD/svg11.dtd">
<svg version="1.1" id="Layer_1" xmlns="http://www.w3.org/2000/svg" xmlns:xlink="http://www.w3.org/1999/xlink" x="0px" y="0px"
	 width="354.33px" height="354.33px" viewBox="0 0 354.33 354.33" enable-background="new 0 0 354.33 354.33" xml:space="preserve">
<g>
	<path fill-rule="evenodd" clip-rule="evenodd" fill="#FFFFFF" d="M165.852,271.613c-1.782,0-3.117,0-4.453,0
		c-27.147,0-54.294,0-81.442,0c-6.256,0-8.576,1.456-10.667,7.437c-3.307,9.458-3.291,19.038-0.045,28.499
		c2.118,6.176,4.437,7.637,10.915,7.638c66.842,0.003,133.683-0.031,200.524,0.05c4.65,0.006,7.7-1.867,9.325-5.989
		c4.149-10.521,4.132-21.134,0.044-31.66c-1.588-4.09-4.549-6.07-9.263-6.046c-27.374,0.146-54.75,0.074-82.125,0.064
		c-1.425-0.001-2.851-0.119-4.571-0.195c0-1.627,0-2.863,0-4.1c0-59.086,0.012-118.17-0.041-177.255
		c-0.002-2.155,0.605-3.516,2.386-4.816c6.737-4.92,10.427-11.733,11.078-19.984c1.055-13.362-7.52-25.28-20.414-28.797
		c-12.595-3.436-26.13,2.7-31.92,14.471c-5.881,11.957-2.526,26.222,8.277,34.265c1.924,1.432,2.431,2.904,2.429,5.12
		c-0.045,59.085-0.036,118.171-0.036,177.254C165.852,268.788,165.852,270.007,165.852,271.613z M249.978,215.912
		c0.887,25.958,25.668,48.206,52.538,47.148c32.554-1.28,49.57-28.324,49.814-47.572c-1.351,0-2.732-0.186-4.043,0.039
		c-2.918,0.502-4.001-0.911-4.59-3.53c-0.67-2.988-1.731-5.89-2.616-8.832c-10.699-35.632-21.388-71.269-32.144-106.884
		c-0.35-1.16-1.223-2.823-2.135-3.036c-3.843-0.896-7.792-1.331-11.825-1.953c-0.448,1.381-0.814,2.438-1.136,3.507
		c-11.271,37.483-22.539,74.967-33.812,112.451c-0.752,2.504-0.853,5.755-2.518,7.277
		C255.969,215.938,252.732,215.498,249.978,215.912z M148.272,46.683c-9.692-1.609-19.108-3.175-28.526-4.736
		C96.375,38.071,73,34.213,49.634,30.305c-2.7-0.45-4.817,0.225-5.986,2.729c-1.609,3.448,0.371,6.396,4.805,7.14
		c25.723,4.32,51.451,8.609,77.181,12.888c6.488,1.079,12.988,2.083,19.43,3.114C146.156,52.946,147.129,50.065,148.272,46.683z
		 M214.833,70.273c0.613,0.206,1.03,0.412,1.471,0.485c31.203,5.148,62.408,10.289,93.616,15.417
		c3.635,0.598,5.854-0.744,6.458-3.806c0.631-3.206-1.019-5.322-4.819-5.958c-25.693-4.303-51.392-8.585-77.091-12.858
		c-6.249-1.04-12.509-2.019-18.899-3.047C215.309,63.943,215.082,66.973,214.833,70.273z"/>
	<path fill-rule="evenodd" clip-rule="evenodd" d="M2.996,172.285c7.893,0.526,7.896,0.526,10.12-6.874
		c11.425-38.033,22.881-76.058,34.199-114.123c0.776-2.609,1.873-3.343,4.284-2.619c0.327,0.098,0.669,0.251,0.995,0.232
		c7.329-0.432,9.89,3.611,11.816,10.284c10.474,36.291,21.56,72.405,32.275,108.628c1.028,3.475,2.366,5.367,6.196,4.644
		c0.844-0.159,1.769,0.112,3.445,0.25c-1.031,4.428-1.63,8.708-3.025,12.708c-7.642,21.909-29.671,36.476-51.935,34.562
		c-24.686-2.12-43.538-19.163-47.685-43.084c-0.111-0.644-0.451-1.246-0.685-1.868C2.996,174.11,2.996,173.197,2.996,172.285z
		 M85.225,172.273c-10.141-34.004-20.205-67.751-30.27-101.498c-0.25,0.017-0.5,0.033-0.75,0.049
		C44.147,104.549,34.09,138.272,23.95,172.273C44.552,172.273,64.682,172.273,85.225,172.273z"/>
	<path fill-rule="evenodd" clip-rule="evenodd" d="M165.852,271.613c0-1.606,0-2.825,0-4.045c0-59.083-0.009-118.169,0.036-177.254
		c0.002-2.216-0.505-3.688-2.429-5.12c-10.803-8.043-14.158-22.309-8.277-34.265c5.791-11.771,19.326-17.907,31.92-14.471
		c12.895,3.518,21.469,15.435,20.414,28.797c-0.651,8.251-4.341,15.063-11.078,19.984c-1.78,1.3-2.388,2.661-2.386,4.816
		c0.053,59.085,0.041,118.169,0.041,177.255c0,1.236,0,2.473,0,4.1c1.721,0.076,3.146,0.194,4.571,0.195
		c27.375,0.01,54.751,0.081,82.125-0.064c4.714-0.024,7.675,1.956,9.263,6.046c4.088,10.526,4.105,21.139-0.044,31.66
		c-1.625,4.122-4.675,5.995-9.325,5.989c-66.842-0.081-133.683-0.047-200.524-0.05c-6.479-0.001-8.797-1.462-10.915-7.638
		c-3.246-9.461-3.261-19.041,0.045-28.499c2.091-5.98,4.411-7.437,10.667-7.437c27.147,0,54.295,0,81.442,0
		C162.734,271.613,164.069,271.613,165.852,271.613z M194.723,63.342c0.127-8.09-6.472-14.881-14.555-14.979
		c-8.101-0.098-14.879,6.502-14.974,14.578c-0.096,8.124,6.493,14.884,14.574,14.953C187.964,77.963,194.597,71.509,194.723,63.342z
		"/>
	<path fill-rule="evenodd" clip-rule="evenodd" d="M249.978,215.912c2.755-0.414,5.991,0.025,7.535-1.385
		c1.665-1.522,1.766-4.773,2.518-7.277c11.272-37.483,22.54-74.968,33.812-112.451c0.321-1.07,0.688-2.126,1.136-3.507
		c4.033,0.622,7.982,1.057,11.825,1.953c0.912,0.213,1.785,1.876,2.135,3.036c10.756,35.616,21.444,71.252,32.144,106.884
		c0.885,2.942,1.946,5.844,2.616,8.832c0.589,2.619,1.672,4.032,4.59,3.53c1.311-0.225,2.692-0.039,4.043-0.039
		c-0.244,19.248-17.261,46.292-49.814,47.572C275.646,264.118,250.864,241.87,249.978,215.912z M270.549,215.271
		c20.645,0,40.76,0,61.27,0c-10.162-34.065-20.231-67.814-30.302-101.565c-0.229,0.008-0.458,0.016-0.688,0.025
		C290.765,147.479,280.703,181.224,270.549,215.271z"/>
	<path fill-rule="evenodd" clip-rule="evenodd" d="M148.272,46.683c-1.143,3.383-2.117,6.264-3.209,9.494
		c-6.442-1.031-12.942-2.035-19.43-3.114c-25.729-4.279-51.458-8.568-77.181-12.888c-4.434-0.744-6.414-3.692-4.805-7.14
		c1.169-2.505,3.287-3.18,5.986-2.729C73,34.213,96.375,38.071,119.747,41.946C129.164,43.508,138.581,45.073,148.272,46.683z"/>
	<path fill-rule="evenodd" clip-rule="evenodd" d="M214.833,70.273c0.249-3.3,0.476-6.33,0.735-9.767
		c6.391,1.028,12.65,2.007,18.899,3.047c25.699,4.273,51.397,8.555,77.091,12.858c3.801,0.637,5.45,2.753,4.819,5.958
		c-0.604,3.062-2.823,4.403-6.458,3.806c-31.208-5.128-62.413-10.269-93.616-15.417C215.863,70.685,215.446,70.479,214.833,70.273z"
		/>
	<path fill-rule="evenodd" clip-rule="evenodd" fill="#FFFFFF" d="M85.225,172.273c-20.543,0-40.673,0-61.275,0
		c10.14-34.001,20.197-67.725,30.255-101.449c0.25-0.016,0.5-0.032,0.75-0.049C65.02,104.522,75.084,138.269,85.225,172.273z"/>
	<path fill-rule="evenodd" clip-rule="evenodd" fill="#FFFFFF" d="M194.723,63.342c-0.126,8.167-6.759,14.621-14.954,14.552
		c-8.081-0.069-14.67-6.829-14.574-14.953c0.095-8.076,6.873-14.676,14.974-14.578C188.251,48.46,194.85,55.252,194.723,63.342z"/>
	<path fill-rule="evenodd" clip-rule="evenodd" fill="#FFFFFF" d="M270.549,215.271c10.154-34.048,20.216-67.793,30.28-101.54
		c0.229-0.009,0.459-0.018,0.688-0.025c10.07,33.75,20.14,67.5,30.302,101.565C311.309,215.271,291.193,215.271,270.549,215.271z"/>
</g>
</svg>
