<?xml version="1.0" encoding="utf-8"?>
<!-- Generator: Adobe Illustrator 16.0.3, SVG Export Plug-In . SVG Version: 6.00 Build 0)  -->
<!DOCTYPE svg PUBLIC "-//W3C//DTD SVG 1.1//EN" "http://www.w3.org/Graphics/SVG/1.1/DTD/svg11.dtd">
<svg version="1.1" id="Layer_1" xmlns="http://www.w3.org/2000/svg" xmlns:xlink="http://www.w3.org/1999/xlink" x="0px" y="0px"
	 width="354.33px" height="354.33px" viewBox="0 0 354.33 354.33" enable-background="new 0 0 354.33 354.33" xml:space="preserve">
<g>
	<path fill-rule="evenodd" clip-rule="evenodd" fill="#FFFFFF" d="M297.202,350.33c-4.829-5.18-9.661-10.33-14.456-15.518
		c-15.332-16.591-28.353-34.588-34.926-56.613c-4.586-15.368-3.616-29.799,6.058-43.174c4.339-5.998,8.248-12.308,12.381-18.457
		c10.799-16.07,20.347-32.774,25.866-51.489c8.952-30.366,9.631-60.168-6.007-88.904c-15.729-28.906-37.56-51.453-69.784-60.534
		c-31.729-8.943-64.142-8.813-95.973,0.735c-21.024,6.307-37.894,18.563-48.732,38.095c-8.425,15.184-14.52,31.316-18.58,48.205
		c-3.97,16.516-5.806,32.847,3.687,48.403c0.703,1.15,0.244,3.6-0.53,4.959c-3.817,6.703-8.209,13.086-11.857,19.874
		c-5.175,9.627-9.932,19.481-14.753,29.295c-1.897,3.863-0.572,7.099,3.058,8.987c3.939,2.049,8.037,3.93,12.261,5.271
		c8.293,2.629,8.798,3.177,7.04,11.809c-0.276,1.356-0.572,2.756-1.159,3.991c-2.409,5.084-1.561,10.006,0.883,14.683
		c1.92,3.676,3.979,7.384,6.599,10.563c2.966,3.599,3.848,7.187,2.391,11.54c-0.584,1.746-0.804,3.61-1.268,5.401
		c-2.865,11.054-0.526,17.128,11.661,23.417c5.866,3.027,12.247,3.897,18.906,2.721c11.994-2.119,24.049-3.9,36.031-6.08
		c3.191-0.582,4.303,0.523,5.292,3.313c5.824,16.432,1.039,32.486-13.406,44.199c-2.08,1.685-4.269,3.238-7.008,5.308
		C173.661,350.33,235.562,350.33,297.202,350.33z"/>
	<path fill-rule="evenodd" clip-rule="evenodd" d="M297.202,350.33c-61.641,0-123.541,0-186.326,0
		c2.739-2.069,4.928-3.623,7.008-5.308c14.445-11.713,19.23-27.768,13.406-44.199c-0.989-2.79-2.101-3.896-5.292-3.313
		c-11.982,2.18-24.037,3.961-36.031,6.08c-6.659,1.177-13.041,0.307-18.906-2.721c-12.187-6.289-14.525-12.363-11.661-23.417
		c0.464-1.791,0.683-3.655,1.268-5.401c1.458-4.354,0.575-7.941-2.391-11.54c-2.62-3.18-4.679-6.888-6.599-10.563
		c-2.443-4.677-3.292-9.599-0.883-14.683c0.587-1.235,0.883-2.635,1.159-3.991c1.758-8.632,1.253-9.18-7.04-11.809
		c-4.224-1.341-8.322-3.222-12.261-5.271c-3.629-1.889-4.955-5.124-3.058-8.987c4.821-9.813,9.578-19.668,14.753-29.295
		c3.648-6.788,8.04-13.171,11.857-19.874c0.773-1.359,1.232-3.809,0.53-4.959c-9.493-15.556-7.657-31.887-3.687-48.403
		c4.06-16.888,10.155-33.021,18.58-48.205c10.838-19.532,27.708-31.789,48.732-38.095c31.831-9.548,64.245-9.678,95.973-0.735
		c32.225,9.081,54.056,31.628,69.784,60.534c15.638,28.736,14.959,58.538,6.007,88.904c-5.52,18.715-15.067,35.419-25.866,51.489
		c-4.133,6.149-8.042,12.459-12.381,18.457c-9.674,13.375-10.644,27.806-6.058,43.174c6.573,22.025,19.594,40.022,34.926,56.613
		C287.541,340,292.373,345.15,297.202,350.33z M195.746,102.661c-2.764,2.643-5.436,5.141-8.038,7.708
		c-1.811,1.785-1.821,3.459-0.194,5.663c5.749,7.791,2.525,15.895-6.989,17.369c-2.92,0.452-4.142,1.689-4.266,4.344
		c-0.115,2.462-0.145,4.936-0.06,7.399c0.094,2.68,1.435,4.023,4.263,4.471c9.159,1.452,12.553,9.602,7.039,17.09
		c-1.911,2.595-1.597,4.398,0.44,6.42c1.423,1.411,2.841,2.828,4.213,4.288c2.247,2.389,4.186,2.684,7.122,0.471
		c7.148-5.388,15.494-1.668,16.632,7.281c0.396,3.128,1.796,4.364,4.753,4.337c1.543-0.016,3.087,0.04,4.628,0.119
		c3.938,0.206,6.407-0.457,7.11-5.471c1.066-7.582,9.601-11.131,15.608-6.495c4.135,3.191,6.498,1.952,9.275-1.099
		c1.143-1.255,2.32-2.478,3.505-3.694c1.789-1.84,1.816-3.438,0.166-5.638c-5.78-7.702-2.493-16.084,6.898-17.414
		c2.908-0.411,4.217-1.522,4.308-4.235c0.087-2.612,0.506-5.366-0.171-7.794c-0.451-1.622-2.366-3.639-3.966-4.006
		c-9.219-2.113-12.602-9.771-7.037-17.235c1.943-2.607,1.593-4.383-0.422-6.407c-1.414-1.422-2.797-2.875-4.191-4.316
		c-2.245-2.319-4.207-2.716-7.153-0.472c-6.923,5.274-15.523,1.726-16.601-6.787c-0.477-3.785-2.14-5.138-5.688-4.922
		c-1.69,0.102-3.397,0.096-5.09,0.017c-3.234-0.151-4.912,0.859-5.53,4.514c-1.521,8.996-9.509,11.996-17.054,6.767
		C198.272,104.252,197.248,103.631,195.746,102.661z M156.731,98.795c1.855-1.158,4.788-1.918,5.386-3.541
		c3.091-8.368,5.689-9.586,13.986-5.457c3.62,1.802,4.937-1.478,6.817-3.166c1.606-1.439,3.583-2.872,1.769-5.83
		c-4.314-7.034-2.513-11.448,5.56-13.481c3.978-1.002,2.789-3.956,2.886-6.271c0.097-2.421,0.771-5.28-3.041-6.23
		c-7.664-1.911-9.455-6.359-5.334-13.243c2.189-3.66-0.93-5.055-2.616-6.868c-1.499-1.61-2.86-4.056-6.119-1.963
		c-6.931,4.454-11.355,2.557-13.432-5.638c-1.063-4.2-4.243-2.702-6.708-2.894c-2.376-0.185-4.894-0.509-5.742,3.032
		c-1.79,7.47-6.716,9.671-12.869,5.549c-3.927-2.631-5.272,0.676-7.195,2.428c-1.792,1.631-4.151,3.126-1.808,6.503
		c4.072,5.875,1.857,11.691-4.983,12.813c-4.193,0.688-3.923,3.195-3.838,5.961c0.088,2.9-0.902,6.049,3.943,6.852
		c6.265,1.038,8.817,7.309,5.051,12.309c-2.727,3.619-0.438,5.29,1.561,7.327c2.125,2.166,3.898,4.534,7.697,1.698
		c4.647-3.471,11.305-1.04,11.951,4.434C150.218,97.909,152.778,98.063,156.731,98.795z"/>
	<path fill-rule="evenodd" clip-rule="evenodd" fill="#FFFFFF" d="M195.746,102.661c1.502,0.97,2.526,1.591,3.511,2.273
		c7.545,5.229,15.532,2.229,17.054-6.767c0.618-3.654,2.296-4.665,5.53-4.514c1.692,0.08,3.399,0.085,5.09-0.017
		c3.549-0.216,5.212,1.137,5.688,4.922c1.077,8.512,9.678,12.061,16.601,6.787c2.946-2.245,4.908-1.848,7.153,0.472
		c1.395,1.441,2.777,2.894,4.191,4.316c2.015,2.024,2.365,3.8,0.422,6.407c-5.564,7.464-2.182,15.122,7.037,17.235
		c1.6,0.367,3.515,2.384,3.966,4.006c0.677,2.428,0.258,5.182,0.171,7.794c-0.091,2.713-1.399,3.824-4.308,4.235
		c-9.392,1.33-12.679,9.712-6.898,17.414c1.65,2.199,1.623,3.798-0.166,5.638c-1.185,1.217-2.362,2.439-3.505,3.694
		c-2.777,3.051-5.141,4.29-9.275,1.099c-6.008-4.636-14.542-1.087-15.608,6.495c-0.703,5.014-3.172,5.677-7.11,5.471
		c-1.541-0.079-3.085-0.135-4.628-0.119c-2.957,0.027-4.356-1.209-4.753-4.337c-1.138-8.949-9.483-12.669-16.632-7.281
		c-2.937,2.213-4.875,1.918-7.122-0.471c-1.372-1.46-2.79-2.877-4.213-4.288c-2.037-2.021-2.352-3.825-0.44-6.42
		c5.514-7.489,2.12-15.639-7.039-17.09c-2.828-0.448-4.169-1.791-4.263-4.471c-0.085-2.463-0.056-4.937,0.06-7.399
		c0.124-2.655,1.346-3.893,4.266-4.344c9.515-1.474,12.738-9.578,6.989-17.369c-1.627-2.204-1.616-3.877,0.194-5.663
		C190.311,107.802,192.982,105.304,195.746,102.661z M205.555,141.67c-0.065,10.534,8.126,18.782,18.706,18.834
		c10.312,0.052,18.622-8.025,18.797-18.271c0.184-10.768-8.147-19.431-18.693-19.439C213.97,122.787,205.619,131.168,205.555,141.67
		z"/>
	<path fill-rule="evenodd" clip-rule="evenodd" fill="#FFFFFF" d="M156.731,98.795c-3.953-0.732-6.514-0.886-7.079-5.675
		c-0.646-5.474-7.304-7.905-11.951-4.434c-3.799,2.836-5.572,0.468-7.697-1.698c-1.999-2.037-4.288-3.708-1.561-7.327
		c3.767-5,1.214-11.271-5.051-12.309c-4.845-0.803-3.855-3.952-3.943-6.852c-0.085-2.766-0.355-5.273,3.838-5.961
		c6.84-1.122,9.055-6.938,4.983-12.813c-2.343-3.377,0.015-4.872,1.808-6.503c1.923-1.752,3.268-5.06,7.195-2.428
		c6.153,4.123,11.079,1.921,12.869-5.549c0.849-3.541,3.366-3.217,5.742-3.032c2.466,0.192,5.645-1.306,6.708,2.894
		c2.076,8.195,6.501,10.091,13.432,5.638c3.259-2.093,4.62,0.353,6.119,1.963c1.687,1.813,4.806,3.208,2.616,6.868
		c-4.121,6.883-2.33,11.332,5.334,13.243c3.813,0.95,3.138,3.809,3.041,6.23c-0.097,2.315,1.092,5.269-2.886,6.271
		c-8.072,2.033-9.874,6.447-5.56,13.481c1.814,2.958-0.162,4.39-1.769,5.83c-1.881,1.688-3.197,4.968-6.817,3.166
		c-8.296-4.13-10.895-2.911-13.986,5.457C161.519,96.876,158.587,97.637,156.731,98.795z M156.646,75.43
		c8.131-0.091,14.166-6.349,14.04-14.558c-0.123-8.021-6.63-14.358-14.561-14.182c-7.895,0.177-14.305,6.825-14.174,14.7
		C142.084,69.373,148.521,75.523,156.646,75.43z"/>
	<path fill-rule="evenodd" clip-rule="evenodd" d="M205.555,141.67c0.064-10.502,8.415-18.884,18.81-18.875
		c10.546,0.008,18.877,8.671,18.693,19.439c-0.175,10.246-8.485,18.323-18.797,18.271
		C213.681,160.452,205.489,152.205,205.555,141.67z"/>
	<path fill-rule="evenodd" clip-rule="evenodd" d="M156.646,75.43c-8.125,0.093-14.563-6.058-14.694-14.039
		c-0.131-7.875,6.279-14.523,14.174-14.7c7.931-0.176,14.438,6.161,14.561,14.182C170.813,69.081,164.777,75.339,156.646,75.43z"/>
</g>
</svg>
